<svg width="200" height="200" viewBox="0 0 200 200" fill="none" xmlns="http://www.w3.org/2000/svg">
<path d="M29 101.033V96.7676C33.6309 96.7676 36.8233 95.8516 38.577 94.0195C40.3581 92.1875 41.2487 88.9883 41.2487 84.4219V68.5078C41.2487 65.0078 41.5912 61.9727 42.2763 59.4023C42.9613 56.8047 44.0574 54.6719 45.5645 53.0039C47.0716 51.3086 49.0446 50.0508 51.4833 49.2305C53.9495 48.4102 56.95 48 60.4849 48V54.2344C57.4159 54.2344 54.9634 54.7402 53.1275 55.752C51.3189 56.7363 50.0173 58.2813 49.2227 60.3867C48.4554 62.4922 48.0718 65.1992 48.0718 68.5078V86.5957C48.0718 88.9199 47.7978 90.9844 47.2497 92.7891C46.7017 94.5664 45.7289 96.0703 44.3314 97.3008C42.9339 98.5313 40.9884 99.4609 38.4948 100.09C36.0286 100.719 32.8637 101.033 29 101.033ZM60.4849 153C56.95 153 53.9495 152.59 51.4833 151.77C49.0446 150.949 47.0716 149.691 45.5645 147.996C44.0574 146.328 42.9613 144.195 42.2763 141.598C41.5912 139.027 41.2487 135.992 41.2487 132.492V116.578C41.2487 112.012 40.3581 108.813 38.577 106.98C36.8233 105.148 33.6309 104.232 29 104.232V99.9668C32.8637 99.9668 36.0286 100.281 38.4948 100.91C40.9884 101.539 42.9339 102.469 44.3314 103.699C45.7289 104.93 46.7017 106.447 47.2497 108.252C47.7978 110.029 48.0718 112.08 48.0718 114.404V132.492C48.0718 135.801 48.4554 138.494 49.2227 140.572C50.0173 142.678 51.3189 144.236 53.1275 145.248C54.9634 146.26 57.4159 146.766 60.4849 146.766V153ZM29 104.232V96.7676H38.4126V104.232H29Z" fill="black"/>
<path d="M172 99.9668V104.232C167.369 104.232 164.163 105.148 162.382 106.98C160.628 108.813 159.751 112.012 159.751 116.578V132.492C159.751 135.992 159.409 139.027 158.724 141.598C158.039 144.195 156.943 146.328 155.435 147.996C153.928 149.691 151.942 150.949 149.476 151.77C147.037 152.59 144.05 153 140.515 153V146.766C143.584 146.766 146.023 146.26 147.831 145.248C149.667 144.236 150.969 142.678 151.736 140.572C152.531 138.494 152.928 135.801 152.928 132.492V114.404C152.928 112.08 153.202 110.029 153.75 108.252C154.298 106.447 155.271 104.93 156.669 103.699C158.066 102.469 159.998 101.539 162.464 100.91C164.958 100.281 168.136 99.9668 172 99.9668ZM140.515 48C144.05 48 147.037 48.4102 149.476 49.2305C151.942 50.0508 153.928 51.3086 155.435 53.0039C156.943 54.6719 158.039 56.8047 158.724 59.4023C159.409 61.9727 159.751 65.0078 159.751 68.5078V84.4219C159.751 88.9883 160.628 92.1875 162.382 94.0195C164.163 95.8516 167.369 96.7676 172 96.7676V101.033C168.136 101.033 164.958 100.719 162.464 100.09C159.998 99.4609 158.066 98.5313 156.669 97.3008C155.271 96.0703 154.298 94.5664 153.75 92.7891C153.202 90.9844 152.928 88.9199 152.928 86.5957V68.5078C152.928 65.1992 152.531 62.4922 151.736 60.3867C150.969 58.2813 149.667 56.7363 147.831 55.752C146.023 54.7402 143.584 54.2344 140.515 54.2344V48ZM172 96.7676V104.232H162.587V96.7676H172Z" fill="black"/>
<path d="M123 50L95.8658 150H89L116.134 50H123Z" fill="black"/>
</svg>
