<svg xmlns="http://www.w3.org/2000/svg" viewBox="0 0 517 517"><defs><style>.cls-1{fill:#111;}</style></defs><title>Asset 11</title><g id="Layer_2" data-name="Layer 2"><g id="Layer_1-2" data-name="Layer 1"><path class="cls-1" d="M93,18c13,68-59.33,124.67-45,182,13,52,77.12,69.15,128,50-27.93-16.34-58.24-58.39-61-98,10.65,25.17,59,58.65,73.6,82.61.29.47.58.95.85,1.43,13.65,23,21.37,53.75,30.55,78a191.68,191.68,0,0,1-8,18C159.6,439,107.19,475.23,48.35,517H0V0H338.59c-40.09,80-74.11,198.7-105.1,280.89-13.77-15.72-27.41-40.5-36.44-58.35-1.13-2.21-7.21-17.37-8.05-19.54C172,159,170,79,93,18Z"/><path class="cls-1" d="M517,0V517H316.41c12.84-39.9,18.74-71.05,20.76-98.27,50.31,9.8,101.52-3.25,120.83-40.73,17-33,16.49-82.84,0-126-7.07,40-17.59,45.43-43,64-19.07,13.94-52.66,38.09-77.1,69.71-.61-21.26-3.12-41.13-5.57-62.68-2.7-23.65-5.33-49.31-5.33-81,0-57.27,19-162.49,49.52-242Z"/><path class="cls-1" d="M190,237c-.18-.32-.36-.64-.55-1"/></g></g></svg>